<svg version="1.1" xmlns="http://www.w3.org/2000/svg" xmlns:xlink="http://www.w3.org/1999/xlink" viewBox="0 0 240 96" preserveAspectRatio="xMidYMid meet">
  <symbol id="svg-icon-twitter" viewBox="0 0 48 48">
    <path class="svg-icon-path" d="M48,9.1c-1.4,2-3,3.7-4.9,5.1c0,0.3,0,0.7,0,1.3c0,2.6-0.4,5.3-1.2,7.9C41.2,26,40,28.6,38.4,31c-1.6,2.4-3.4,4.6-5.6,6.4 c-2.2,1.9-4.8,3.3-7.9,4.4c-3.1,1.1-6.3,1.7-9.8,1.7C9.6,43.5,4.6,42,0,39.1c0.7,0.1,1.5,0.1,2.4,0.1c4.6,0,8.6-1.4,12.2-4.2 c-2.1,0-4-0.7-5.7-2c-1.7-1.3-2.8-2.9-3.5-4.9c0.7,0.1,1.3,0.2,1.9,0.2c0.9,0,1.7-0.1,2.6-0.3c-2.3-0.5-4.2-1.6-5.6-3.4 c-1.5-1.8-2.2-3.9-2.2-6.3v-0.1c1.4,0.8,2.9,1.2,4.4,1.2C5.1,18.6,4,17.4,3.2,16C2.4,14.5,2,13,2,11.3c0-1.8,0.4-3.4,1.3-5 c2.5,3,5.4,5.4,9,7.3c3.5,1.8,7.3,2.8,11.3,3c-0.2-0.8-0.2-1.5-0.2-2.3c0-2.7,1-5,2.9-7s4.2-2.9,7-2.9c2.8,0,5.2,1,7.2,3.1 c2.2-0.4,4.3-1.2,6.2-2.4c-0.8,2.3-2.2,4.1-4.3,5.4C44.2,10.5,46.1,10,48,9.1z"/>
  </symbol>
  <symbol id="svg-icon-facebook" viewBox="48 0 48 48">
    <path class="svg-icon-path" d="M84.5,0.3V8h-4.5c-1.7,0-2.8,0.3-3.3,1c-0.6,0.7-0.9,1.7-0.9,3.1v5.5h8.5L83,26.1h-7.3V48h-8.8V26.1h-7.4v-8.5h7.4v-6.3 c0-3.6,1-6.3,3-8.3c2-2,4.7-3,8-3C80.7,0,82.9,0.1,84.5,0.3z"/>
  </symbol>
  <symbol id="svg-icon-google" viewBox="96 0 48 48">
    <path class="svg-icon-path" d="M117.5,23c0,0.7,0.3,1.4,0.9,2c0.6,0.7,1.4,1.3,2.2,2c0.9,0.6,1.7,1.3,2.6,2.1c0.9,0.8,1.6,1.8,2.2,3 c0.6,1.2,0.9,2.6,0.9,4.1c0,1.7-0.5,3.4-1.4,5c-1.4,2.3-3.4,4.1-6.1,5.2c-2.7,1.1-5.5,1.7-8.6,1.7c-2.5,0-4.9-0.4-7.1-1.2 c-2.2-0.8-3.8-2.1-4.9-4c-0.7-1.2-1.1-2.4-1.1-3.8c0-1.6,0.4-3,1.3-4.3c0.9-1.3,2-2.4,3.4-3.3c2.5-1.6,6.4-2.5,11.7-2.9 c-0.6-0.8-1.1-1.5-1.4-2.1c-0.3-0.6-0.5-1.3-0.5-2.1c0-0.7,0.2-1.5,0.6-2.5c-0.9,0.1-1.5,0.1-2,0.1c-2.8,0-5.2-0.9-7.2-2.8 c-2-1.9-2.9-4.2-2.9-7.1c0-1.6,0.3-3.1,1-4.6c0.7-1.5,1.6-2.7,2.9-3.8c1.5-1.3,3.2-2.2,5.3-2.8c2-0.6,4.1-0.9,6.3-0.9h12.1l-4,2.5 H120c1.4,1.2,2.5,2.5,3.2,3.8c0.7,1.3,1.1,2.9,1.1,4.6c0,1.4-0.2,2.6-0.7,3.7s-1,2-1.7,2.7c-0.7,0.7-1.3,1.3-2,1.9 c-0.7,0.6-1.2,1.2-1.7,1.8C117.7,21.7,117.5,22.3,117.5,23z M113.3,45.4c1.1,0,2.2-0.1,3.2-0.4c1-0.2,2-0.6,2.9-1.1 s1.6-1.2,2.1-2.1c0.5-0.9,0.8-2,0.8-3.1c0-0.5-0.1-1-0.2-1.4c-0.1-0.5-0.3-0.9-0.4-1.2c-0.1-0.3-0.4-0.7-0.8-1.2 c-0.4-0.5-0.7-0.8-0.9-1c-0.2-0.2-0.6-0.6-1.1-1c-0.5-0.4-0.9-0.7-1.1-0.8c-0.2-0.1-0.6-0.4-1.2-0.9c-0.6-0.5-1-0.7-1.1-0.8 c-0.3,0-0.8-0.1-1.4-0.1c-1,0-2,0.1-3,0.2s-2,0.4-3.1,0.7c-1.1,0.3-2,0.8-2.8,1.3c-0.8,0.5-1.5,1.3-2,2.1c-0.5,0.9-0.8,1.9-0.8,3 c0,1.3,0.3,2.5,1,3.6c0.7,1,1.6,1.8,2.6,2.4c1.1,0.6,2.2,1,3.4,1.3C110.8,45.2,112.1,45.4,113.3,45.4z M113.3,20.2 c0.7,0,1.5-0.2,2.3-0.5c0.8-0.3,1.4-0.7,1.9-1.3c1-1.1,1.5-2.6,1.5-4.6c0-1.1-0.2-2.3-0.5-3.6c-0.3-1.3-0.8-2.5-1.4-3.7 c-0.6-1.2-1.4-2.2-2.4-3c-1-0.8-2.1-1.2-3.4-1.2c-0.8,0-1.6,0.2-2.4,0.6c-0.8,0.4-1.4,0.9-1.9,1.5c-0.9,1.1-1.4,2.7-1.4,4.6 c0,0.9,0.1,1.8,0.3,2.8c0.2,1,0.5,2,0.9,3c0.4,1,0.9,1.9,1.5,2.7c0.6,0.8,1.3,1.4,2.2,1.9C111.3,19.9,112.3,20.2,113.3,20.2z M136.7,20.1h6.1v3.1h-6.1v6.3h-3v-6.3h-6.1v-3.1h6.1v-6.3h3V20.1z"/>
  </symbol>
  <symbol id="svg-icon-rss" viewBox="144 0 48 48">
    <path class="svg-icon-path" d="M191,48h-7c-0.6,0-1-0.4-1-1c0-21-17-38-38-38c-0.6,0-1-0.4-1-1V1c0-0.6,0.4-1,1-1c25.9,0,47,21,47,47 C192,47.6,191.6,48,191,48z M176,48h-7c-0.6,0-1-0.4-1-1c0-12.7-10.3-23-23-23c-0.6,0-1-0.4-1-1v-7c0-0.6,0.4-1,1-1 c17.6,0,32,14.3,32,32C177,47.6,176.6,48,176,48z M151.5,48c-4.2,0-7.5-3.3-7.5-7.5c0-4.1,3.3-7.5,7.5-7.5c4.1,0,7.5,3.4,7.5,7.5 C159,44.7,155.6,48,151.5,48z"/>
  </symbol>
  <symbol id="svg-icon-heart-outline" viewBox="0 48 48 48">
    <path class="svg-icon-path" d="M42,76.6c-9,9.3-16.2,16.9-16.3,16.9L24,95.3l-1.7-1.8C22.2,93.5,15,85.9,6,76.6c-5.3-5.5-6.2-10.9-6-14.4 c0.2-4.1,2.1-8,5-10.4c2.5-2,5.8-3.2,9-3.2c5,0,8.1,2.1,10,4.7c1.9-2.6,5-4.7,10-4.7c3.3,0,6.5,1.2,9,3.2c2.9,2.3,4.7,6.2,5,10.4 C48.2,65.7,47.3,71.1,42,76.6z M43.2,62.5c-0.2-3.3-1.8-5.7-3.2-6.9c-1.6-1.4-3.9-2.1-6-2.1c-6.9,0-7.4,6.1-7.6,6.8 c-0.2,0.8-0.7,1.9-2.3,1.9c-1.7,0-2.4-1-2.5-1.9c-0.1-0.6-0.7-6.7-7.6-6.7c-2.1,0-4.4,0.8-6,2.1c-1.4,1.1-3,3.6-3.2,6.9 C4.6,65,5.3,69,9.4,73.3c6.4,6.6,11.9,12.3,14.6,15.1c2.7-2.8,8.2-8.5,14.6-15.1C42.7,69,43.4,65,43.2,62.5z"/>
  </symbol>
  <symbol id="svg-icon-external" viewBox="48 48 48 48">
    <polygon class="svg-icon-path" points="48,48 48,96 96,96 96,78 87.6,78 87.6,88.4 56.4,88.4 56.4,56.4 66,56.4 66,48"/>
    <polygon class="svg-icon-path" points="96,70.8 96,48 73.2,48 70.4,48 79.6,57.2 67.6,68.8 75.2,76.4 86.8,64.4 96,73.6"/>
  </symbol>
</svg>