<svg version="1.1" xmlns="http://www.w3.org/2000/svg" xmlns:xlink="http://www.w3.org/1999/xlink" viewBox="0 0 96 48" preserveAspectRatio="xMidYMid meet">
  <symbol id="twitter" viewBox="0 0 48 48">
    <path class="social-icon-path" d="M48,9.1c-1.4,2-3,3.7-4.9,5.1c0,0.3,0,0.7,0,1.3c0,2.6-0.4,5.3-1.2,7.9C41.2,26,40,28.6,38.4,31s-3.4,4.6-5.6,6.4 c-2.2,1.9-4.8,3.3-7.9,4.4c-3.1,1.1-6.3,1.7-9.8,1.7C9.6,43.5,4.6,42,0,39.1c0.7,0.1,1.5,0.1,2.4,0.1c4.6,0,8.6-1.4,12.2-4.2 c-2.1,0-4-0.7-5.7-2s-2.8-2.9-3.5-4.9c0.7,0.1,1.3,0.2,1.9,0.2c0.9,0,1.7-0.1,2.6-0.3c-2.3-0.5-4.2-1.6-5.6-3.4 c-1.5-1.8-2.2-3.9-2.2-6.3v-0.1C3.5,19,5,19.4,6.5,19.4c-1.4-0.8-2.5-2-3.3-3.4C2.4,14.5,2,13,2,11.3c0-1.8,0.4-3.4,1.3-5 c2.5,3,5.4,5.4,9,7.3c3.5,1.8,7.3,2.8,11.3,3c-0.2-0.8-0.2-1.5-0.2-2.3c0-2.7,1-5,2.9-7s4.2-2.9,7-2.9s5.2,1,7.2,3.1 c2.2-0.4,4.3-1.2,6.2-2.4c-0.8,2.3-2.2,4.1-4.3,5.4C44.2,10.5,46.1,10,48,9.1z"/>
  </symbol>
  <symbol id="facebook" viewBox="48 0 48 48">
    <path class="social-icon-path" d="M84.5,0.3V8H80c-1.7,0-2.8,0.3-3.3,1c-0.6,0.7-0.9,1.7-0.9,3.1v5.5h8.5L83,26.1h-7.3V48h-8.8V26.1h-7.4v-8.5h7.4v-6.3 c0-3.6,1-6.3,3-8.3s4.7-3,8-3C80.7,0,82.9,0.1,84.5,0.3z"/>
  </symbol>
</svg>
